<?xml version="1.0" standalone="no"?>
<!DOCTYPE svg PUBLIC "-//W3C//DTD SVG 20010904//EN"
 "http://www.w3.org/TR/2001/REC-SVG-20010904/DTD/svg10.dtd">
<svg version="1.0" xmlns="http://www.w3.org/2000/svg"
 width="299.000000pt" height="299.000000pt" viewBox="0 0 299.000000 299.000000"
 preserveAspectRatio="xMidYMid meet">
<metadata>
Created by potrace 1.14, written by Peter Selinger 2001-2017
</metadata>
<g transform="translate(0.000000,299.000000) scale(0.100000,-0.100000)"
fill="#000000" stroke="none">
<path d="M353 2830 c-13 -5 -23 -7 -23 -5 0 12 -119 -50 -159 -83 -68 -55 -88
-80 -129 -162 l-37 -75 0 -780 c0 -779 0 -780 22 -833 43 -105 123 -194 220
-243 93 -47 105 -48 1014 -47 l855 0 315 -209 c172 -115 325 -215 338 -223 37
-19 105 -14 145 12 72 47 68 -26 68 1171 0 591 -3 1094 -7 1118 -11 68 -68
179 -121 232 -56 57 -107 88 -191 116 -62 21 -74 21 -1175 20 -630 0 -1123 -4
-1135 -9z"/>
</g>
</svg>
